<svg xmlns="http://www.w3.org/2000/svg" width="40" height="40" viewBox="0 0 40 40">
    <g transform="translate(-1307.822 359.624)">
        <circle data-name="타원 12" cx="20" cy="20" r="20" transform="translate(1307.822 -359.624)" style="fill:none"/>
        <g data-name="그룹 28">
            <path data-name="패스 41" d="M1323.715-338.143v-3.619c.623 0 1.247-.009 1.869.01.249.008.311-.07.314-.314a27.514 27.514 0 0 1 .053-2.952 3.65 3.65 0 0 1 3.571-3.473c1.221-.134 2.449-.03 3.672-.067.2-.006.245.057.244.246q-.013 1.559 0 3.116c0 .213-.077.262-.272.259q-.92-.011-1.838 0a.994.994 0 0 0-1.122.848.96.96 0 0 0 0 .262c-.017.581.007 1.164-.012 1.745-.008.253.054.338.323.332.872-.018 1.746.011 2.617-.015.323-.01.328.127.3.364-.045.317-.077.637-.11.952-.069.667-.139 1.339-.2 2.01-.021.222-.1.3-.347.3-.706-.019-1.412-.01-2.119-.006-.523 0-.451-.07-.451.437v9.66c0 .262-.07.322-.326.319q-1.823-.024-3.646 0c-.3 0-.349-.086-.349-.36.01-3.251 0-6.5.01-9.753 0-.246-.065-.317-.31-.31-.621.024-1.245.012-1.868.012z" transform="translate(-.757 -.526)" style="fill:#878788"/>
        </g>
    </g>
</svg>
