<svg xmlns="http://www.w3.org/2000/svg" width="80" height="80" viewBox="0 0 80 80">
    <path data-name="사각형 624" style="fill:none" d="M0 0h80v80H0z"/>
    <g data-name="그룹 22">
        <path data-name="패스 27" d="m1160.452 803.869-10.433 7.192V797.1a1.443 1.443 0 0 0-1.446-1.432h-55.229a1.443 1.443 0 0 0-1.446 1.432v41.026a1.443 1.443 0 0 0 1.446 1.432h55.229a1.443 1.443 0 0 0 1.446-1.432v-14.954l10.433 7.192a4.844 4.844 0 0 0 6.8 0v-26.495a4.844 4.844 0 0 0-6.8 0zm-18.335 25.507a1.308 1.308 0 0 1-1.4 1.174H1101.2a1.308 1.308 0 0 1-1.4-1.174v-23.564a1.308 1.308 0 0 1 1.4-1.174h39.51a1.308 1.308 0 0 1 1.4 1.174z" transform="translate(-1089.576 -777.616)" style="fill:#fff"/>
        <path data-name="패스 28" d="M1147.62 830.732c-.1-.1-.2-.184-.307-.275l.091-.059-.166-.007a8.547 8.547 0 0 0-2.014-1.3 6.576 6.576 0 0 0 2.865-4.234c.041 0 .082.006.124.006a2.037 2.037 0 0 0 2.13-1.929 1.825 1.825 0 0 0-.581-1.317c.007.007.016.011.023.019.86-3.345 2.1-12.014-8.084-12.177h-.291c-10.272.165-8.922 8.981-8.062 12.262.041-.046.085-.089.131-.131a1.831 1.831 0 0 0-.607 1.344 2.037 2.037 0 0 0 2.131 1.929 2.245 2.245 0 0 0 .235-.012 6.574 6.574 0 0 0 2.858 4.237 8.532 8.532 0 0 0-2.031 1.3l-.166.007.092.059c-.1.091-.209.177-.308.275a10.023 10.023 0 0 0-2.912 7.5h17.763a10.023 10.023 0 0 0-2.914-7.497zm-5.843 7.242-1.644-1.9.942-2.325h.015l-.724-1.529 1.277-2.059 1.307 2.059-.47 1.529.942 2.325z" transform="translate(-1110.691 -784.823)" style="fill:#fff"/>
    </g>
</svg>
