<svg xmlns="http://www.w3.org/2000/svg" width="80" height="80" viewBox="0 0 80 80">
    <path data-name="사각형 622" style="fill:none" d="M0 0h80v80H0z"/>
    <g data-name="그룹 20">
        <path data-name="패스 25" d="M963.77 784.419h-48.264a1.46 1.46 0 0 0-1.476 1.435v57.135a1.46 1.46 0 0 0 1.476 1.435h48.264a1.46 1.46 0 0 0 1.476-1.435v-57.135a1.46 1.46 0 0 0-1.476-1.435zm-27.991 3.323h7.721v2.387h-7.72zm20 45.948a1.46 1.46 0 0 1-1.476 1.435h-29.325a1.46 1.46 0 0 1-1.476-1.435v-38.538a1.46 1.46 0 0 1 1.476-1.435H954.3a1.46 1.46 0 0 1 1.476 1.435z" transform="translate(-899.638 -771.778)" style="fill:#a8a8a8"/>
        <path data-name="사각형 623" transform="translate(37.886 7.354)" style="fill:#a8a8a8" d="M0 0h4.229v10.173H0z"/>
        <path data-name="패스 26" d="M964.084 838.473c-.115-.113-.238-.214-.357-.319l.106-.069-.192-.008a9.921 9.921 0 0 0-2.341-1.507 7.644 7.644 0 0 0 3.331-4.921c.048 0 .1.006.144.006a2.368 2.368 0 0 0 2.477-2.241 2.122 2.122 0 0 0-.676-1.531c.008.008.019.014.027.022 1-3.888 2.443-13.964-9.4-14.153v-.005h-.338v.005c-11.94.191-10.37 10.439-9.371 14.253.048-.054.1-.1.153-.153a2.13 2.13 0 0 0-.7 1.563 2.367 2.367 0 0 0 2.476 2.241 2.63 2.63 0 0 0 .273-.014 7.646 7.646 0 0 0 3.322 4.925 9.918 9.918 0 0 0-2.361 1.516l-.193.008.106.069c-.12.106-.242.206-.358.319a11.65 11.65 0 0 0-3.385 8.717h20.647a11.65 11.65 0 0 0-3.39-8.723zm-6.791 8.418-1.911-2.211 1.094-2.7h.018l-.841-1.777 1.484-2.393 1.52 2.393-.546 1.777 1.095 2.7z" transform="translate(-916.293 -787.692)" style="fill:#a8a8a8"/>
    </g>
</svg>
