<svg xmlns="http://www.w3.org/2000/svg" width="100" height="100" viewBox="0 0 100 100">
    <path data-name="사각형 616" style="fill:none" d="M0 0h100v100H0z"/>
    <g data-name="그룹 19" transform="translate(7.502 20.624)">
        <g data-name="그룹 18">
            <path data-name="패스 22" d="M1438.014 912.958a3.64 3.64 0 0 0 .053-1.3c-.062-.455-.058-.919-.123-1.374a14.014 14.014 0 0 0-1.205-4.012 12 12 0 0 0-1.5-2.5 19.227 19.227 0 0 0-1.881-2.064 11.8 11.8 0 0 0-3.416-2.226c-.15-.063-.294-.143-.462-.224a9.152 9.152 0 0 0 3.61-7.917 8.5 8.5 0 0 0-2.665-5.828 8.993 8.993 0 0 0-6.094-2.561c-.094 0-.187-.006-.281-.007s-.188 0-.282.007a8.992 8.992 0 0 0-6.094 2.561 8.5 8.5 0 0 0-2.666 5.828 9.152 9.152 0 0 0 3.61 7.917c-.167.081-.311.161-.462.224a11.784 11.784 0 0 0-3.416 2.226 19.247 19.247 0 0 0-1.882 2.064 12.039 12.039 0 0 0-1.5 2.5 14.008 14.008 0 0 0-1.2 4.012c-.065.454-.061.919-.124 1.374a3.645 3.645 0 0 0 .053 1.3z" transform="translate(-1388.174 -854.208)" style="stroke-width:2px;stroke:#fff;fill:none"/>
            <path data-name="선 18" transform="translate(13.929 58.75)" style="stroke-width:2px;stroke:#fff;fill:none" d="M0 0h71.067"/>
            <path data-name="선 19" transform="translate(30.717 9.341)" style="stroke-width:2px;stroke:#fff;fill:none" d="M0 0h14.121"/>
            <path data-name="선 20" transform="translate(51.948 24.598)" style="stroke-width:2px;stroke:#fff;fill:none" d="M0 0h25.511"/>
            <path data-name="선 21" transform="translate(51.948 32.89)" style="stroke-width:2px;stroke:#fff;fill:none" d="M0 0h25.511"/>
            <path data-name="선 22" transform="translate(51.948 41.181)" style="stroke-width:2px;stroke:#fff;fill:none" d="M0 0h25.511"/>
            <path data-name="선 23" transform="translate(23.27 9.341)" style="stroke-width:2px;stroke:#fff;fill:none" d="M0 0h4.982"/>
            <path data-name="패스 24" d="M1467.21 847.969h-60.355a4.583 4.583 0 0 0-4.583 4.583v40.964a4.583 4.583 0 0 0 4.583 4.583h4.209c.131-.191.27-.379.417-.56a19.252 19.252 0 0 1 1.882-2.064 11.783 11.783 0 0 1 3.416-2.226c.151-.063.295-.143.462-.225a9.149 9.149 0 0 1-3.61-7.916 8.5 8.5 0 0 1 2.666-5.828 8.989 8.989 0 0 1 6.094-2.561c.094 0 .187-.006.282-.007s.187 0 .281.007a8.989 8.989 0 0 1 6.094 2.561 8.5 8.5 0 0 1 2.665 5.828 9.149 9.149 0 0 1-3.61 7.916c.168.082.311.162.462.225a11.8 11.8 0 0 1 3.416 2.226 19.233 19.233 0 0 1 1.881 2.064c.148.181.285.368.417.56h32.933a4.583 4.583 0 0 0 4.583-4.583v-40.964a4.584 4.584 0 0 0-4.585-4.583z" transform="translate(-1386.796 -847.969)" style="stroke-width:2px;stroke:#fff;fill:none"/>
            <path data-name="패스 23" d="m1474.669 868.208-7-6.573-7 6.573v-20.239h14z" transform="translate(-1397.211 -847.969)" style="stroke:#fff;stroke-width:2px;fill:none"/>
        </g>
        <circle data-name="타원 10" cx="2.094" cy="2.094" r="2.094" transform="translate(0 39.088)" style="fill:#fff"/>
        <circle data-name="타원 11" cx="2.094" cy="2.094" r="2.094" transform="translate(7.298 48.037)" style="fill:#fff"/>
    </g>
</svg>
