<svg xmlns="http://www.w3.org/2000/svg" width="80" height="80" viewBox="0 0 80 80">
    <path data-name="사각형 625" style="fill:none" d="M0 0h80v80H0z"/>
    <g data-name="그룹 24">
        <path data-name="패스 29" d="M1372.89 837h3.39l-1.683-5.516z" transform="translate(-1337.508 -794.527)" style="fill:#fff"/>
        <path data-name="패스 30" d="M1380.16 797.553v-4.169h-10.213v-6.791a1.759 1.759 0 0 0-1.754-1.754h-6.793v-10.213h-4.169v10.213h-5.419v-10.213h-4.168v10.213h-5.419v-10.213h-4.168v10.213h-6.791a1.759 1.759 0 0 0-1.754 1.754v6.791H1319.3v4.169h10.213v5.418H1319.3v4.169h10.213v5.419H1319.3v4.169h10.213v6.791a1.759 1.759 0 0 0 1.754 1.754h6.791v10.213h4.168v-10.214h5.419v10.213h4.168v-10.213h5.419v10.213h4.169v-10.213h6.791a1.759 1.759 0 0 0 1.754-1.754v-6.791h10.213v-4.169h-10.213v-5.418h10.213v-4.169h-10.213v-5.418zm-29.643 16.464-.864-2.747h-5.693l-.841 2.747h-4.786l5.693-16.083a2.483 2.483 0 0 1 1.141-1.385 3.455 3.455 0 0 1 1.717-.454 3.157 3.157 0 0 1 1.628.465 2.463 2.463 0 0 1 1.1 1.374l5.783 16.083zm10.611 0h-4.608V798.31a2 2 0 0 1 .687-1.684 2.726 2.726 0 0 1 3.235 0 2 2 0 0 1 .686 1.684z" transform="translate(-1309.73 -765.056)" style="fill:#fff"/>
    </g>
</svg>
